<?xml version="1.0" encoding="iso-8859-1"?>
<!-- Generator: Adobe Illustrator 16.0.0, SVG Export Plug-In . SVG Version: 6.00 Build 0)  -->
<!DOCTYPE svg PUBLIC "-//W3C//DTD SVG 1.1//EN" "http://www.w3.org/Graphics/SVG/1.1/DTD/svg11.dtd">
<svg version="1.1" id="Capa_1" xmlns="http://www.w3.org/2000/svg" xmlns:xlink="http://www.w3.org/1999/xlink" x="0px" y="0px"
	 width="480.1px" height="480.1px" viewBox="0 0 480.1 480.1" style="enable-background:new 0 0 480.1 480.1;" xml:space="preserve"
	>
<g>
	<path d="M45.25,383.4c20.3,0,39.8-5.4,54.9-15.101c5.1-3.3,9.4-6.899,13.1-10.899c3.6,4,8,7.6,13.1,10.899
		c8.6,5.5,18.6,9.601,29.3,12.101v-26.201c-17.9-5.699-29.8-16.6-29.8-26.399c0-7-5.7-12.601-12.6-12.601
		c-7,0-12.6,5.701-12.6,12.601c0,14-24.2,30.3-55.4,30.3c-7,0-12.6,5.7-12.6,12.6C32.65,377.6,38.35,383.4,45.25,383.4z"/>
	<path d="M261.95,327.9c0-7-5.7-12.601-12.6-12.601c-6.9,0-12.601,5.7-12.601,12.601c0,9.199-10.4,19.299-26.3,25.199v26.5
		c9.4-2.6,18.2-6.3,25.8-11.3c5.101-3.3,9.399-6.899,13.101-10.899c3.6,4,8,7.6,13.1,10.899c15.1,9.7,34.6,15.101,54.9,15.101
		c20.299,0,39.799-5.4,54.9-15.101c5.1-3.3,9.398-6.899,13.1-10.899c3.6,4,8,7.6,13.1,10.899c15.1,9.7,34.6,15.101,54.9,15.101
		c7,0,12.6-5.701,12.6-12.601s-5.699-12.601-12.6-12.601c-31.201,0-55.4-16.299-55.4-30.299c0-7-5.699-12.601-12.6-12.601
		s-12.6,5.7-12.6,12.601c0,14-24.201,30.299-55.4,30.299C286.149,358.1,261.95,341.9,261.95,327.9z"/>
	<path d="M45.25,454.199c20.3,0,39.8-5.398,54.9-15.1c5.1-3.299,9.4-6.9,13.1-10.9c3.6,4,8,7.602,13.1,10.9
		c8.6,5.5,18.6,9.6,29.3,12.1V425c-17.9-5.699-29.8-16.6-29.8-26.4c0-7-5.7-12.6-12.6-12.6c-7,0-12.6,5.699-12.6,12.6
		c0,14-24.2,30.301-55.4,30.301c-7,0-12.6,5.699-12.6,12.6S38.35,454.199,45.25,454.199z"/>
	<path d="M210.35,450.4c9.4-2.6,18.2-6.301,25.8-11.301c5.1-3.299,9.4-6.9,13.1-10.9c3.601,4,8,7.602,13.101,10.9
		c15.1,9.701,34.6,15.1,54.9,15.1c20.299,0,39.799-5.398,54.898-15.1c5.102-3.299,9.4-6.9,13.102-10.9c3.6,4,8,7.602,13.1,10.9
		c15.1,9.701,34.6,15.1,54.9,15.1c7,0,12.6-5.699,12.6-12.6s-5.701-12.6-12.6-12.6c-31.201,0-55.4-16.301-55.4-30.301
		c0-7-5.701-12.6-12.6-12.6c-6.9,0-12.602,5.7-12.602,12.6c0,14-24.199,30.301-55.398,30.301c-31.201,0-55.4-16.301-55.4-30.301
		c0-7-5.701-12.6-12.601-12.6s-12.6,5.7-12.6,12.6c0,9.201-10.4,19.301-26.3,25.201V450.4L210.35,450.4z"/>
	<path d="M166.25,21v6.3c5.6-0.5,11.2-0.7,16.8-0.7c5.6,0,11.3,0.3,16.8,0.7V21c0-11.6-7.5-21-16.8-21
		C173.75,0,166.25,9.4,166.25,21z"/>
	<path d="M199.85,458.9V452.6V426.9v-45v-25.701V229.6h-33.7v127.3v25.6v45.199v25.602v5.799c0,11.6,7.5,21,16.8,21
		C192.35,480,199.85,470.5,199.85,458.9z"/>
	<path d="M160.95,219.1h5.3h33.6h5.3h5.3h154.699c0-91.2-67.1-166.8-154.699-180c-1.7-0.3-3.5-0.5-5.3-0.7c-1.7-0.2-3.5-0.4-5.3-0.6
		c-5.5-0.5-11.2-0.8-16.8-0.8c-5.6,0-11.3,0.3-16.8,0.8c-1.8,0.2-3.5,0.3-5.3,0.6c-1.8,0.2-3.5,0.4-5.3,0.7
		c-87.5,13.2-154.7,88.7-154.7,180h154.7H160.95z"/>
	<circle cx="439.751" cy="102.8" r="39.4"/>
</g>
<g>
</g>
<g>
</g>
<g>
</g>
<g>
</g>
<g>
</g>
<g>
</g>
<g>
</g>
<g>
</g>
<g>
</g>
<g>
</g>
<g>
</g>
<g>
</g>
<g>
</g>
<g>
</g>
<g>
</g>
</svg>
