<?xml version="1.0" encoding="iso-8859-1"?>
<!-- Generator: Adobe Illustrator 19.0.0, SVG Export Plug-In . SVG Version: 6.00 Build 0)  -->
<svg version="1.1" id="Layer_1" xmlns="http://www.w3.org/2000/svg" xmlns:xlink="http://www.w3.org/1999/xlink" x="0px" y="0px"
	 viewBox="0 0 512 512" style="enable-background:new 0 0 512 512;" xml:space="preserve">
<g>
	<g>
		<path d="M495.304,473.041h-14.297l24.232-60.582c3.424-8.559-0.739-18.277-9.304-21.701c-8.544-3.424-18.266,0.739-21.695,9.298
			l-20.218,50.547L270.659,114.449c-6.303-11.548-23.033-11.508-29.315,0L57.98,450.603l-20.218-50.547
			c-3.424-8.559-13.142-12.733-21.701-9.298c-8.559,3.424-12.723,13.142-9.298,21.701l24.232,60.582H16.696
			C7.473,473.041,0,480.514,0,489.737c0,9.223,7.473,16.696,16.696,16.696c290.113,0,173.867,0,478.609,0
			c9.217,0,16.696-7.473,16.696-16.696C512,480.514,504.521,473.041,495.304,473.041z M239.304,473.046h-43.027l43.027-78.89
			V473.046z M272.696,473.046v-78.89l43.027,78.89H272.696z"/>
	</g>
</g>
<g>
	<g>
		<path d="M422.957,5.567c-46.032,0-83.478,37.446-83.478,83.478c0,46.032,37.446,83.478,83.478,83.478
			c46.032,0,83.478-37.446,83.478-83.478S468.989,5.567,422.957,5.567z"/>
	</g>
</g>
<g>
</g>
<g>
</g>
<g>
</g>
<g>
</g>
<g>
</g>
<g>
</g>
<g>
</g>
<g>
</g>
<g>
</g>
<g>
</g>
<g>
</g>
<g>
</g>
<g>
</g>
<g>
</g>
<g>
</g>
</svg>
