<?xml version="1.0" encoding="iso-8859-1"?>
<!-- Generator: Adobe Illustrator 16.0.0, SVG Export Plug-In . SVG Version: 6.00 Build 0)  -->
<!DOCTYPE svg PUBLIC "-//W3C//DTD SVG 1.1//EN" "http://www.w3.org/Graphics/SVG/1.1/DTD/svg11.dtd">
<svg version="1.1" id="Capa_1" xmlns="http://www.w3.org/2000/svg" xmlns:xlink="http://www.w3.org/1999/xlink" x="0px" y="0px"
	 width="484.604px" height="484.604px" viewBox="0 0 484.604 484.604" style="enable-background:new 0 0 484.604 484.604;"
	 xml:space="preserve">
<g>
	<g>
		<polygon points="368.513,42.071 348.704,46.715 305.408,13.146 280.165,20.985 242.302,0 204.44,20.985 179.197,13.146 
			135.901,46.715 116.091,42.071 71.391,86.77 71.391,217.205 171.167,309.615 188.285,291.422 132.38,238.819 159.386,208.339 
			179.197,212.982 217.059,192 242.302,199.834 267.545,192 305.408,212.982 325.218,208.339 352.597,238.967 296.848,291.422 
			313.967,309.615 413.213,217.205 413.213,86.77 		"/>
		<circle cx="242.302" cy="276.031" r="35.125"/>
		<path d="M273.856,343.504c3.07-2.268,6.444-4.889,10.164-7.922c12.033-9.809,22.221-19.463,22.648-19.871l-17.2-18.113
			c-8.134,7.725-16.853,15.229-24.576,21.311c-2.458-2.351-5.185-4.5-7.875-6.385c-4.477,2.07-9.459,3.232-14.715,3.232
			s-10.238-1.162-14.715-3.232c-2.689,1.885-5.414,4.031-7.871,6.381c-7.723-6.08-16.442-13.582-24.58-21.307l-17.199,18.113
			c0.428,0.408,10.615,10.062,22.648,19.871c3.719,3.033,7.093,5.654,10.165,7.922v35.463c0,3.1,0.455,6.092,1.288,8.922
			l-18.076,48.191l21.832,48.524l22.78-10.248l-17.609-39.141l10.046-26.787c3.507,1.346,7.312,2.09,11.292,2.09
			c3.98,0,7.785-0.744,11.292-2.09l10.046,26.787l-17.609,39.141l22.78,10.248l21.832-48.524l-18.075-48.191
			c0.832-2.83,1.287-5.822,1.287-8.922V343.504L273.856,343.504z"/>
	</g>
</g>
<g>
</g>
<g>
</g>
<g>
</g>
<g>
</g>
<g>
</g>
<g>
</g>
<g>
</g>
<g>
</g>
<g>
</g>
<g>
</g>
<g>
</g>
<g>
</g>
<g>
</g>
<g>
</g>
<g>
</g>
</svg>
